<svg xmlns="http://www.w3.org/2000/svg" data-name="Layer 1" viewBox="0 0 1000 1000" id="bajaj"><rect width="1002" height="1002" x="-1" y="-1" fill="none" data-name="canvas background"></rect><path fill="#0a53a0" d="M190,223.52,425.46,325.41s32.19-14.22,63.53-27.65c0,0,5.93-3.16,5.93-9.47A11.75,11.75,0,0,0,487.29,278s-105.88-45.81-211.76-90.84l189.74-81.35,16.1-3.16,15.24,3.16L781.22,228.26S810,240.89,810,257.48c0,0,0,16.59-28.8,28.44L558.45,381.49l222.77,95.57s28.8,11.85,28.8,30c0,0,0,15.8-28.8,29.22L496.61,657.15a26.08,26.08,0,0,1-15.24,4.74l-16.1-4.74L275.53,576.59l211.76-90.05,7.63-10.27s0-4.74-5.93-10.26l-63.53-26.86L190,541V425.72l102.49-44.23L190,338.84V223.52"></path><g data-name="svg 1"><path fill="#0a53a0" d="M582.17 757.73V858.17s0 41-39.9 41.38H477.34s-8.79-.4-12.51-8.43l-11.49-21.7h73.37S543 869 543 854.15V757.73h39.22M382 757.73L455.7 899.55h-46L397.2 873.84H329.57l10.83-21.7s4.05-8.43 12.51-8.43h29.75l-26-52.23L304.21 899.55h-46l73.71-141.82H382M702.21 757.73l73 141.82H729.94l-12.85-25.71h-68l11.16-21.7s4.4-8.43 12.85-8.43h29.76l-26-52.23L623.76 899.55h-46l73.72-141.82h50.72M901.72 757.73V858.17s-.34 41-39.23 41.38h-65.6s-9.13-.4-12.85-8.43l-11.15-21.7H846.6s16.57-.4 16.57-15.27V757.73h38.55M98.28 757.72V899.55H137.5V786.66h67.64c13.86 0 13.86 12.05 13.86 12.05C219 810 205.14 810 205.14 810H161.51c-8.11 0-12.51 7.63-12.51 7.63l-11.5 21.7h67c14.54 0 14.54 14.86 14.54 14.86 0 14.87-14.54 15.27-14.54 15.27h-43c-8.11-.4-12.51 8-12.51 8l-11.5 22.1h67.64c57.48-.4 57.49-38.56 57.49-38.56 0-24.91-27.06-33.76-27.06-33.76 27.05-8 27.06-32.94 27.06-32.94 0-37-57.49-36.57-57.49-36.57z"></path></g></svg>